<svg width="393" height="68" viewBox="0 0 393 68" fill="none" xmlns="http://www.w3.org/2000/svg">
<g clip-path="url(#clip0_24_12)">
<path d="M57.2841 4.7235C57.2841 2.11315 55.9159 -0.00296021 54.2282 -0.00296021C52.5404 -0.00296021 51.1722 2.11315 51.1722 4.7235V63.2765C51.1722 65.8869 52.5404 68.003 54.2282 68.003C55.9159 68.003 57.2841 65.8869 57.2841 63.2765V4.7235Z" fill="white"/>
<g clip-path="url(#clip1_24_12)">
<g clip-path="url(#clip2_24_12)">
<path d="M32.3266 15.9618V19.9798L30.5532 21.0022V16.9849L32.3266 15.9618Z" fill="#FF5A30"/>
<path d="M27.3439 18.8326V22.8498L25.5698 23.8729V19.8563L27.3439 18.8326Z" fill="#FF5A30"/>
<path d="M22.3599 21.704V25.7206L20.5844 26.7437V22.7271L22.3599 21.704Z" fill="#FF5A30"/>
<path d="M32.3266 24.2242V28.2408L30.5532 29.2638V25.2472L32.3266 24.2242Z" fill="#FF5A30"/>
<path d="M27.3439 27.0942V31.1122L25.5698 32.1353V28.1173L27.3439 27.0942Z" fill="#FF5A30"/>
<path d="M32.3266 32.4872V36.5052L30.5532 37.5276V33.5089L32.3266 32.4872Z" fill="#FF5A30"/>
<path d="M27.3439 35.3566V39.3746L25.5698 40.3976V36.381L27.3439 35.3566Z" fill="#FF5A30"/>
<path d="M22.3599 38.228V42.2453L20.5844 43.2684V39.2511L22.3599 38.228Z" fill="#FF5A30"/>
<path d="M27.3439 43.6196V47.6369L25.5698 48.6593V44.6427L27.3439 43.6196Z" fill="#FF5A30"/>
<path d="M22.3599 46.4897V50.507L20.5844 51.5301V47.5135L22.3599 46.4897Z" fill="#FF5A30"/>
<path d="M32.3266 49.0106V53.0285L30.5532 54.0516V50.0336L32.3266 49.0106Z" fill="#FF5A30"/>
<path d="M22.3599 54.7527V58.7693L20.5844 59.7917V55.7758L22.3599 54.7527Z" fill="#FF5A30"/>
<path d="M17.7392 0.166199L2.73928 8.81187L0.306 10.2162V57.7858L17.7392 67.8338V20.2649L35.1725 10.2162L17.7392 0.166199ZM4.92526 54.0502L3.15051 53.0272V49.0099L4.92526 50.0316V54.0502ZM4.92526 45.7886L3.15051 44.7655V40.7475L4.92526 41.7706V45.7886ZM4.92526 29.2638L3.15051 28.2408V24.2228L4.92526 25.2452V29.2638ZM4.92526 21.0015L3.15051 19.9791V15.9611L4.92526 16.9842V21.0015ZM9.90931 56.9217L8.13388 55.8993V51.8806L9.90931 52.9037V56.9217ZM9.90931 40.3976L8.13388 39.3746V35.3566L9.90931 36.3797V40.3976ZM9.90931 32.1353L8.13388 31.1115V27.0942L9.90931 28.1173V32.1353ZM9.90931 23.8729L8.13388 22.8498V18.8319L9.90931 19.8549V23.8729ZM14.8927 59.7917L13.1179 58.7693V54.7507L14.8927 55.7738V59.7917ZM14.8927 51.5301L13.1179 50.507V46.4897L14.8927 47.5114V51.5301ZM14.8927 43.2684L13.1179 42.2453V38.2273L14.8927 39.2497V43.2684ZM14.8927 35.0053L13.1179 33.9829V29.9643L14.8927 30.9874V35.0053ZM17.7604 4.48017L17.7392 4.46925L6.11389 11.1704L4.45937 10.2162L6.31336 9.14744L17.7392 2.5602L31.0177 10.2155L29.3625 11.1697L17.7604 4.48017Z" fill="#FF5A30"/>
</g>
</g>
<path d="M88.16 38.9L79.22 38.78L90.98 2.3C91.1 1.9 91.4 1.7 91.88 1.7H101C101.48 1.7 101.78 1.9 101.9 2.3L113.72 38.78L104.66 38.9L98.96 18.56C98.52 16.96 98.08 15.36 97.64 13.76C97.24 12.16 96.84 10.56 96.44 8.96H96.32C95.92 10.6 95.5 12.24 95.06 13.88C94.62 15.48 94.18 17.1 93.74 18.74L88.16 38.9ZM77.78 49.4C77.58 49.4 77.4 49.32 77.24 49.16C77.08 49 77 48.82 77 48.62V34.16C77 33.96 77.08 33.8 77.24 33.68C77.4 33.52 77.58 33.44 77.78 33.44H115.22C115.42 33.44 115.58 33.52 115.7 33.68C115.86 33.8 115.94 33.96 115.94 34.16V48.62C115.94 48.82 115.86 49 115.7 49.16C115.58 49.32 115.42 49.4 115.22 49.4H108.38C108.18 49.4 108 49.32 107.84 49.16C107.68 49 107.6 48.82 107.6 48.62V41H85.34V48.62C85.34 48.82 85.26 49 85.1 49.16C84.98 49.32 84.8 49.4 84.56 49.4H77.78ZM132.932 41.72C128.572 41.72 125.172 40.68 122.732 38.6C120.332 36.52 119.132 33.4 119.132 29.24V23.06C119.132 18.9 120.332 15.78 122.732 13.7C125.172 11.62 128.572 10.58 132.932 10.58C137.332 10.58 140.732 11.62 143.132 13.7C145.532 15.78 146.732 18.9 146.732 23.06V29.24C146.732 33.4 145.532 36.52 143.132 38.6C140.732 40.68 137.332 41.72 132.932 41.72ZM132.932 34.64C134.852 34.64 136.232 34.16 137.072 33.2C137.952 32.2 138.392 30.62 138.392 28.46V23.84C138.392 21.68 137.952 20.12 137.072 19.16C136.232 18.16 134.852 17.66 132.932 17.66C131.052 17.66 129.672 18.16 128.792 19.16C127.912 20.12 127.472 21.68 127.472 23.84V28.46C127.472 30.62 127.912 32.2 128.792 33.2C129.672 34.16 131.052 34.64 132.932 34.64ZM153.142 41C152.662 41 152.422 40.74 152.422 40.22L152.962 12.08C152.962 11.56 153.202 11.3 153.682 11.3H160.522C160.882 11.3 161.182 11.5 161.422 11.9L168.802 26.66L176.182 11.9C176.382 11.5 176.682 11.3 177.082 11.3H183.862C184.382 11.3 184.642 11.56 184.642 12.08L185.182 40.22C185.182 40.74 184.942 41 184.462 41H178.282C177.762 41 177.502 40.74 177.502 40.22L177.382 30.56C177.382 29.88 177.402 29.12 177.442 28.28C177.522 27.4 177.582 26.52 177.622 25.64C177.702 24.76 177.742 23.94 177.742 23.18H177.562C177.122 24.18 176.622 25.22 176.062 26.3C175.542 27.38 175.042 28.34 174.562 29.18L169.642 37.7C169.562 37.86 169.442 37.98 169.282 38.06C169.162 38.1 169.002 38.12 168.802 38.12C168.642 38.12 168.482 38.1 168.322 38.06C168.202 38.02 168.062 37.9 167.902 37.7L163.042 29.18C162.562 28.34 162.062 27.38 161.542 26.3C161.062 25.22 160.562 24.18 160.042 23.18H159.862C159.942 23.94 160.002 24.76 160.042 25.64C160.082 26.52 160.122 27.4 160.162 28.28C160.202 29.12 160.222 29.88 160.222 30.56L160.102 40.22C160.102 40.74 159.842 41 159.322 41H153.142ZM207.771 41.72C202.571 41.72 198.551 40.46 195.711 37.94C192.871 35.38 191.451 31.56 191.451 26.48V16.34C191.451 11.18 192.871 7.34 195.711 4.82C198.591 2.26 202.631 0.979997 207.831 0.979997C211.471 0.979997 214.571 1.56 217.131 2.72C219.691 3.88 221.571 5.54 222.771 7.7C224.011 9.82 224.431 12.32 224.031 15.2C223.991 15.4 223.911 15.6 223.791 15.8C223.671 15.96 223.491 16.04 223.251 16.04H216.171C215.691 16.04 215.471 15.78 215.511 15.26C215.551 13.14 214.951 11.46 213.711 10.22C212.511 8.98 210.591 8.36 207.951 8.36C205.431 8.36 203.471 9.04 202.071 10.4C200.711 11.72 200.031 13.78 200.031 16.58V26.12C200.031 28.92 200.711 31 202.071 32.36C203.471 33.68 205.431 34.34 207.951 34.34C210.671 34.34 212.631 33.7 213.831 32.42C215.071 31.1 215.631 29.44 215.511 27.44C215.471 26.92 215.691 26.66 216.171 26.66H223.191C223.671 26.66 223.951 26.94 224.031 27.5C224.311 30.38 223.831 32.9 222.591 35.06C221.351 37.18 219.471 38.82 216.951 39.98C214.431 41.14 211.371 41.72 207.771 41.72ZM231.081 41C230.561 41 230.301 40.74 230.301 40.22V18.92C230.301 17.72 230.261 16.56 230.181 15.44C230.141 14.28 230.061 13.18 229.941 12.14C229.861 11.58 230.121 11.3 230.721 11.3H236.661C236.901 11.3 237.081 11.34 237.201 11.42C237.321 11.5 237.401 11.66 237.441 11.9C237.561 12.42 237.661 13.02 237.741 13.7C237.861 14.34 237.941 14.98 237.981 15.62C239.381 14.22 240.861 13.04 242.421 12.08C243.981 11.08 245.801 10.58 247.881 10.58C250.001 10.58 251.641 11 252.801 11.84C253.961 12.68 254.801 13.94 255.321 15.62C256.761 14.18 258.281 12.98 259.881 12.02C261.521 11.06 263.361 10.58 265.401 10.58C268.201 10.58 270.281 11.38 271.641 12.98C273.041 14.58 273.741 17.06 273.741 20.42V40.22C273.741 40.74 273.481 41 272.961 41H266.181C265.661 41 265.401 40.74 265.401 40.22V22.1C265.401 20.66 265.141 19.58 264.621 18.86C264.101 18.14 263.261 17.78 262.101 17.78C261.101 17.78 260.121 18.06 259.161 18.62C258.241 19.14 257.261 19.92 256.221 20.96V40.22C256.221 40.74 255.961 41 255.441 41H248.661C248.141 41 247.881 40.74 247.881 40.22V22.1C247.881 20.66 247.621 19.58 247.101 18.86C246.581 18.14 245.721 17.78 244.521 17.78C243.521 17.78 242.561 18.06 241.641 18.62C240.721 19.14 239.721 19.92 238.641 20.96V40.22C238.641 40.74 238.381 41 237.861 41H231.081ZM296.358 41.72C294.998 41.72 293.498 41.54 291.858 41.18C290.258 40.82 288.918 40.32 287.838 39.68L287.718 33.26C288.678 33.78 289.698 34.18 290.778 34.46C291.858 34.74 292.858 34.88 293.778 34.88C295.418 34.88 296.618 34.36 297.378 33.32C298.138 32.28 298.518 30.78 298.518 28.82V22.64C298.518 21 298.218 19.78 297.618 18.98C297.058 18.18 296.138 17.78 294.858 17.78C293.658 17.78 292.458 18.14 291.258 18.86C290.098 19.58 288.818 20.6 287.418 21.92L286.938 16.22C287.978 15.22 289.058 14.3 290.178 13.46C291.338 12.58 292.558 11.88 293.838 11.36C295.118 10.84 296.558 10.58 298.158 10.58C301.078 10.58 303.258 11.42 304.698 13.1C306.138 14.78 306.858 17.4 306.858 20.96V29.54C306.858 33.78 305.938 36.88 304.098 38.84C302.298 40.76 299.718 41.72 296.358 41.72ZM281.238 52.1C280.718 52.1 280.458 51.84 280.458 51.32V18.68C280.458 17.56 280.418 16.44 280.338 15.32C280.298 14.2 280.218 13.14 280.098 12.14C280.058 11.58 280.318 11.3 280.878 11.3H286.818C287.258 11.3 287.538 11.52 287.658 11.96C287.738 12.32 287.818 12.76 287.898 13.28C287.978 13.76 288.038 14.28 288.078 14.84C288.158 15.36 288.178 15.82 288.138 16.22L288.798 19.76V51.32C288.798 51.84 288.538 52.1 288.018 52.1H281.238ZM326.116 41.72C321.756 41.72 318.356 40.68 315.916 38.6C313.516 36.52 312.316 33.4 312.316 29.24V23.06C312.316 18.9 313.516 15.78 315.916 13.7C318.356 11.62 321.756 10.58 326.116 10.58C330.516 10.58 333.916 11.62 336.316 13.7C338.716 15.78 339.916 18.9 339.916 23.06V29.24C339.916 33.4 338.716 36.52 336.316 38.6C333.916 40.68 330.516 41.72 326.116 41.72ZM326.116 34.64C328.036 34.64 329.416 34.16 330.256 33.2C331.136 32.2 331.576 30.62 331.576 28.46V23.84C331.576 21.68 331.136 20.12 330.256 19.16C329.416 18.16 328.036 17.66 326.116 17.66C324.236 17.66 322.856 18.16 321.976 19.16C321.096 20.12 320.656 21.68 320.656 23.84V28.46C320.656 30.62 321.096 32.2 321.976 33.2C322.856 34.16 324.236 34.64 326.116 34.64ZM354.185 41.72C351.465 41.72 349.405 40.92 348.005 39.32C346.645 37.68 345.965 35.2 345.965 31.88V12.08C345.965 11.56 346.225 11.3 346.745 11.3H353.525C354.045 11.3 354.305 11.56 354.305 12.08V30.2C354.305 31.64 354.565 32.72 355.085 33.44C355.605 34.16 356.405 34.52 357.485 34.52C358.725 34.52 359.945 34.12 361.145 33.32C362.385 32.52 363.665 31.44 364.985 30.08L365.465 35.66C364.425 36.7 363.325 37.7 362.165 38.66C361.045 39.58 359.825 40.32 358.505 40.88C357.185 41.44 355.745 41.72 354.185 41.72ZM365.885 41C365.645 41 365.465 40.96 365.345 40.88C365.225 40.76 365.125 40.58 365.045 40.34C364.885 39.66 364.765 38.92 364.685 38.12C364.605 37.32 364.525 36.5 364.445 35.66L363.785 32.3V12.08C363.785 11.56 364.045 11.3 364.565 11.3H371.345C371.865 11.3 372.125 11.56 372.125 12.08V33.38C372.125 34.58 372.145 35.76 372.185 36.92C372.265 38.04 372.365 39.14 372.485 40.22C372.565 40.74 372.305 41 371.705 41H365.885ZM359.105 7.7C357.785 7.7 356.605 7.52 355.565 7.16C354.525 6.76 353.645 6.3 352.925 5.78C352.205 5.26 351.645 4.8 351.245 4.4C351.085 4.24 351.005 3.98 351.005 3.62V-0.820002C351.005 -1.14 351.085 -1.34 351.245 -1.42C351.405 -1.5 351.605 -1.44 351.845 -1.24C352.605 -0.560003 353.605 0.119998 354.845 0.799999C356.085 1.48 357.505 1.82 359.105 1.82C360.705 1.82 362.125 1.5 363.365 0.859998C364.645 0.179997 365.625 -0.520003 366.305 -1.24C366.545 -1.48 366.745 -1.54 366.905 -1.42C367.105 -1.34 367.205 -1.14 367.205 -0.820002V3.62C367.205 3.78 367.185 3.96 367.145 4.16C367.105 4.32 367.005 4.46 366.845 4.58C366.405 4.94 365.825 5.36 365.105 5.84C364.425 6.32 363.585 6.76 362.585 7.16C361.585 7.52 360.425 7.7 359.105 7.7Z" fill="white"/>
</g>
<defs>
<clipPath id="clip0_24_12">
<rect width="393" height="68" fill="white"/>
</clipPath>
<clipPath id="clip1_24_12">
<rect width="34.8665" height="67.6676" fill="white" transform="translate(0.306 0.166199)"/>
</clipPath>
<clipPath id="clip2_24_12">
<rect width="34.8665" height="67.6676" fill="white" transform="translate(0.306 0.166199)"/>
</clipPath>
</defs>
</svg>
